<?xml version="1.0" encoding="iso-8859-1"?>
<!-- Generator: Adobe Illustrator 18.1.1, SVG Export Plug-In . SVG Version: 6.00 Build 0)  -->
<svg xmlns="http://www.w3.org/2000/svg" xmlns:xlink="http://www.w3.org/1999/xlink" version="1.1" id="Capa_1" x="0px" y="0px" viewBox="0 0 28.078 28.078" style="enable-background:new 0 0 28.078 28.078;" xml:space="preserve" width="512px" height="512px">
<g>
	<path d="M23.611,9.571C23.611,4.285,19.326,0,14.04,0C8.755,0,4.468,4.285,4.468,9.571c0,4.883,3.66,8.901,8.381,9.488v2.881H9.165   v2.424h3.684v3.714h2.428v-3.714h3.637V21.94h-3.637v-2.888C19.976,18.444,23.611,14.435,23.611,9.571z M7.345,9.571   c0-3.698,3-6.695,6.695-6.695c3.699,0,6.697,2.997,6.697,6.695c0,3.697-2.998,6.695-6.697,6.695   C10.345,16.266,7.345,13.268,7.345,9.571z" fill="#e629b3"/>
	<g>
	</g>
	<g>
	</g>
	<g>
	</g>
	<g>
	</g>
	<g>
	</g>
	<g>
	</g>
	<g>
	</g>
	<g>
	</g>
	<g>
	</g>
	<g>
	</g>
	<g>
	</g>
	<g>
	</g>
	<g>
	</g>
	<g>
	</g>
	<g>
	</g>
</g>
<g>
</g>
<g>
</g>
<g>
</g>
<g>
</g>
<g>
</g>
<g>
</g>
<g>
</g>
<g>
</g>
<g>
</g>
<g>
</g>
<g>
</g>
<g>
</g>
<g>
</g>
<g>
</g>
<g>
</g>
</svg>
